<?xml version="1.0" encoding="UTF-8" standalone="no"?>
<!-- Uploaded to: SVG Repo, www.svgrepo.com, Generator: SVG Repo Mixer Tools -->

<svg
   width="600"
   height="400"
   viewBox="0 -0.5 18.75 12.5"
   fill="none"
   version="1.1"
   id="svg1"
   sodipodi:docname="double-tick-mark.svg"
   inkscape:version="1.4.2 (f4327f4, 2025-05-13)"
   xmlns:inkscape="http://www.inkscape.org/namespaces/inkscape"
   xmlns:sodipodi="http://sodipodi.sourceforge.net/DTD/sodipodi-0.dtd"
   xmlns="http://www.w3.org/2000/svg"
   xmlns:svg="http://www.w3.org/2000/svg">
  <defs
     id="defs1" />
  <sodipodi:namedview
     id="namedview1"
     pagecolor="#ffffff"
     bordercolor="#000000"
     borderopacity="0.25"
     inkscape:showpageshadow="2"
     inkscape:pageopacity="0.0"
     inkscape:pagecheckerboard="0"
     inkscape:deskcolor="#d1d1d1"
     inkscape:zoom="1.00875"
     inkscape:cx="400.49566"
     inkscape:cy="400"
     inkscape:window-width="1920"
     inkscape:window-height="1009"
     inkscape:window-x="-8"
     inkscape:window-y="-8"
     inkscape:window-maximized="1"
     inkscape:current-layer="svg1" />
  <path
     d="m 1.9053274,5.0614726 c -0.29289,-0.2929 -0.76777,-0.2929 -1.06065991,0 -0.29289,0.2929 -0.29289,0.7677 0,1.0606 z m 3.46967,4.5302985 -0.53033,0.5302999 c 0.29289,0.2929 0.76777,0.2929 1.06066,0 z M 13.905297,2.1221026 c 0.2929,-0.29289 0.2929,-0.76777 0,-1.06066 -0.2929,-0.29289001 -0.7677,-0.29289001 -1.0606,0 z m -7.9999696,2.93937 c -0.29289,-0.2929 -0.76777,-0.2929 -1.06066,0 -0.29289,0.2929 -0.29289,0.7677 0,1.0606 z m 3.46967,4.5302985 -0.5303,0.5302999 c 0.2929,0.2929 0.7677,0.2929 1.0606,0 z M 17.905297,2.1221026 c 0.2929,-0.29289 0.2929,-0.76777 0,-1.06066 -0.2929,-0.29289001 -0.7677,-0.29289001 -1.0606,0 z m -17.06062951,3.99997 3.99999991,3.9999984 1.06066,-1.0605999 -4,-3.9999985 z m 5.06065991,3.9999984 7.9999696,-7.9999684 -1.0606,-1.06066 -8.0000296,8.0000285 z m -1.06066,-3.9999984 4.00003,3.9999984 1.0606,-1.0605999 -3.99997,-3.9999985 z m 5.06063,3.9999984 7.9999996,-7.9999684 -1.0606,-1.06066 -7.9999996,8.0000285 z"
     fill="#000000"
     id="path1"
     style="fill:#000000;fill-opacity:0.60000002" />
</svg>
