<?xml version="1.0" encoding="UTF-8" standalone="no"?>
<!-- Created with Inkscape (http://www.inkscape.org/) -->

<svg
   width="10cm"
   height="10cm"
   viewBox="0 0 100 100"
   version="1.1"
   id="svg1"
   inkscape:version="1.4.2 (f4327f4, 2025-05-13)"
   sodipodi:docname="chita.svg"
   xml:space="preserve"
   inkscape:export-filename="chita-transparent.png"
   inkscape:export-xdpi="152.39999"
   inkscape:export-ydpi="152.39999"
   xmlns:inkscape="http://www.inkscape.org/namespaces/inkscape"
   xmlns:sodipodi="http://sodipodi.sourceforge.net/DTD/sodipodi-0.dtd"
   xmlns="http://www.w3.org/2000/svg"
   xmlns:svg="http://www.w3.org/2000/svg"><sodipodi:namedview
     id="namedview1"
     pagecolor="#ffffff"
     bordercolor="#000000"
     borderopacity="0.25"
     inkscape:showpageshadow="2"
     inkscape:pageopacity="0.0"
     inkscape:pagecheckerboard="0"
     inkscape:deskcolor="#d1d1d1"
     inkscape:document-units="cm"
     inkscape:zoom="2"
     inkscape:cx="199.25"
     inkscape:cy="175.25"
     inkscape:window-width="1920"
     inkscape:window-height="1009"
     inkscape:window-x="-8"
     inkscape:window-y="-8"
     inkscape:window-maximized="1"
     inkscape:current-layer="layer1"
     showgrid="false" /><defs
     id="defs1"><clipPath
       clipPathUnits="userSpaceOnUse"
       id="clipPath247"><rect
         style="opacity:1;fill:#12c9c9;fill-opacity:1;stroke-width:0.65595"
         id="rect247"
         width="100"
         height="100"
         x="97.500938"
         y="103.01555" /></clipPath></defs><g
     inkscape:label="Camada 1"
     inkscape:groupmode="layer"
     id="layer1"><g
       id="g91"
       clip-path="url(#clipPath247)"
       transform="translate(-97.500938,-103.01555)"><g
         id="g7"
         inkscape:label="flor azul"
         transform="translate(95.372397,-51.736112)"><g
           id="g6"><path
             style="opacity:1;fill:#3bdf3b;fill-opacity:1;stroke:none;stroke-width:0.264999;stroke-dasharray:none"
             d="m 29.9265,225.26475 c 0.786725,-3.25509 4.408169,-2.53655 6.496778,-3.5841 2.935168,7.10551 -1.337467,7.5486 -2.657616,9.7345 l -3.968603,1.69154 z"
             id="path5"
             sodipodi:nodetypes="ccccc" /><path
             style="opacity:1;fill:#029c02;fill-opacity:1;stroke:none;stroke-width:0.264999;stroke-dasharray:none"
             d="m 30.187414,232.29345 c 1.929339,-2.95046 4.157374,-5.27783 5.855316,-9.69381 0.370789,2.48521 -4.919791,10.07633 -5.237255,9.88898 -0.11206,-0.0661 -0.618061,-0.19517 -0.618061,-0.19517 z"
             id="path6"
             sodipodi:nodetypes="ccsc" /></g><path
           style="opacity:1;fill:#3131ff;fill-opacity:1;stroke:none;stroke-width:0.264583"
           d="m 25.177863,237.40058 c -3.246783,0.73439 -6.045867,2.89718 -10.441982,0.52048 0.382634,-2.44376 2.413193,-4.02433 4.586666,-5.53003 -1.7756,-1.0898 -2.420668,-0.82936 -2.895128,0.68312 -3.50178,-3.2222 1.170141,-5.75514 3.51319,-5.82278 1.764541,-0.0261 3.061257,0.3241 4.391487,1.17106 -0.342661,-1.89322 0.672548,-3.56013 2.407186,-5.10714 6.534108,1.20418 6.808406,5.05785 3.903545,9.07574 1.205815,-1.76948 2.502776,-2.2682 4.197268,-2.89744 3.356831,-0.2514 5.972959,0.69678 7.968783,1.46614 -2.253359,1.89991 -2.390001,4.90052 -8.587803,4.74932 4.673163,5.20033 1.726333,7.57726 0.910829,8.84803 -1.520014,-0.95223 -3.463078,-1.28623 -3.968605,-3.25295 -1.382167,2.63491 -3.87191,4.94516 -6.720817,5.0286 -0.613617,-2.99272 -0.303661,-5.93943 0.735381,-8.93215 z"
           id="path1"
           sodipodi:nodetypes="ccccccccccccccc" /><circle
           style="opacity:1;fill:#3131ff;fill-opacity:1;stroke:#d40000;stroke-width:0.264999;stroke-dasharray:none"
           id="path2"
           cx="28.040464"
           cy="234.79822"
           r="2.0168314" /><path
           style="opacity:1;fill:#9f9fff;fill-opacity:1;stroke:none;stroke-width:0.264999;stroke-dasharray:none"
           d="m 25.854089,233.42286 c 0.09653,-1.11671 0.443237,-3.1322 -0.046,-4.60037 l 1.058085,2.71422 c 0.891667,-0.47161 1.286339,-1.77154 1.840149,-2.80623 -0.827119,3.22239 0.772583,3.71719 1.472116,1.56413 0.360181,-1.10858 -0.694434,2.5762 -0.230018,2.5762 0.897569,0.19417 1.708814,-0.0433 2.484199,-0.46003 0,0 -1.211686,1.44944 -1.012081,1.70214 0.322027,0.40769 2.162175,-0.0423 2.162175,-0.23002 -0.408725,0.57268 -1.035756,0.92706 -0.87407,2.07016 0.263767,1.13271 1.154992,1.84711 1.748142,2.76023 -1.473269,-0.95519 -2.590017,-1.48256 -3.45028,-1.70214 0.08561,0.80633 0.470026,1.91148 0.920074,3.08225 l -2.438195,-3.22027 c -0.519087,0.55663 -0.689284,3.23715 -0.736061,4.73839 l -0.414033,-2.25418 c -0.325281,-0.079 -0.964372,1.09726 -1.518122,1.93215 0.433017,-1.43244 0.578259,-2.76895 0.276022,-3.95631 l -1.334109,2.25417 c 0.141155,-1.18076 0.598218,-2.36152 0.184015,-3.54228 -1.043788,-0.61286 -3.274764,-0.63213 -5.244424,-0.78206 1.705586,-0.1062 3.427568,-0.20692 4.416358,-0.55205 -0.367189,-0.97602 -2.259875,-2.46054 -3.634294,-3.7723 1.702139,1.1961 3.358273,2.34619 4.370356,2.4842 z"
           id="path3"
           sodipodi:nodetypes="ccccsccscccccccccccccccc" /><circle
           style="opacity:1;fill:#1111a0;fill-opacity:1;stroke:none;stroke-width:0.264999;stroke-dasharray:none"
           id="path4"
           cx="28.361292"
           cy="234.77997"
           r="1.4031134" /></g><g
         id="g15"
         transform="rotate(-17.738815,-79.012721,484.92365)"><path
           style="opacity:1;fill:#eb0000;fill-opacity:1;stroke:none;stroke-width:0.4;stroke-dasharray:none"
           d="m 242.8362,213.09547 c 0.60356,0.79188 1.82038,0.6076 2.51047,0.18796 0.81152,-1.056 0.96216,-1.84072 -0.10925,-3.58142 1.00049,-0.25603 2.81745,-0.92956 2.68767,-2.28344 -0.18457,-0.88886 -1.72089,-0.93543 -2.75734,-0.53339 1.22465,-0.69491 0.75353,-2.17445 -0.37186,-2.4692 -1.48732,-0.19728 -1.85166,1.12343 -1.98956,2.26478 -0.43341,-0.99368 -1.47032,-1.90254 -2.63377,-1.2248 -1.50474,1.13207 -0.83899,3.23888 -0.47487,4.01372 -0.72268,-0.0629 -1.41217,-0.0742 -1.36974,1.05307 0.11342,0.90403 0.73184,0.86313 1.30277,0.85214 -1.45802,1.77605 -0.42639,2.76918 0.4213,3.17849 0.8602,0.42272 2.10968,0.0332 2.78418,-1.45791 z"
           id="path9"
           sodipodi:nodetypes="ccccccccccccc" /><path
           style="opacity:1;fill:none;fill-opacity:0.411972;stroke:#008000;stroke-width:0.4;stroke-dasharray:none"
           d="m 242.86555,212.84078 c 0.52047,2.47225 -1.46383,6.40832 -1.36624,8.36009 0.0975,1.95042 1.106,2.89513 1.13853,4.42402 -0.0976,1.78913 -0.16266,1.69154 -0.16266,1.69154"
           id="path12"
           sodipodi:nodetypes="cscc" /><path
           style="opacity:1;fill:#008000;fill-opacity:1;stroke:none;stroke-width:0.4;stroke-dasharray:none"
           d="m 239.48247,216.09373 c -1.36623,4.58667 -0.21726,6.42655 0.94337,6.11556 2.60675,-0.69848 -0.3027,-3.60801 -0.94337,-6.11556 z"
           id="path13"
           sodipodi:nodetypes="csc" /><path
           style="opacity:1;fill:#008000;fill-opacity:1;stroke:none;stroke-width:0.4;stroke-dasharray:none"
           d="m 245.14261,220.84304 c -1.0084,1.65902 -3.98287,3.48594 -1.93549,4.668 1.70366,0.9836 2.44605,-1.6725 1.93549,-4.668 z"
           id="path14"
           sodipodi:nodetypes="csc" /><ellipse
           style="opacity:1;fill:#ffcc00;fill-opacity:1;stroke:none;stroke-width:0.520972;stroke-dasharray:none"
           id="path15"
           ry="2.0561657"
           rx="1.1305133"
           cy="155.50183"
           cx="293.42017"
           transform="matrix(0.97841563,0.20664669,-0.28504665,0.95851365,0,0)" /></g><g
         id="g18"
         transform="matrix(0.41960336,0,0,0.43141142,64.201339,47.529797)"><path
           style="opacity:1;fill:#ffffff;fill-opacity:1;stroke:none;stroke-width:0.4;stroke-dasharray:none"
           d="m 179.78252,227.7184 c 1.81676,4.94398 5.85013,13.85608 -3.22025,17.66543 7.70159,-0.62084 11.42318,3.85527 12.513,10.58085 -4.15843,7.14355 -14.53312,7.01057 -18.95353,-0.64405 7.57876,12.80856 -6.07248,18.6775 -6.07248,18.6775 -3.61671,-2.60912 -8.74118,-6.10268 -6.34852,-15.36523 -6.70497,3.01953 -12.30931,2.40695 -16.56134,-2.66822 2.30892,-10.64297 6.75303,-11.12055 12.69703,-11.31691 -5.61183,-3.05702 -6.21433,-8.71146 -5.24442,-15.18123 5.86999,-1.09193 15.66532,-2.1022 16.1933,9.8448 2.13618,-10.11679 9.01926,-11.08058 14.99721,-11.59294 z"
           id="path16"
           sodipodi:nodetypes="ccccccccccc" /><path
           style="opacity:1;fill:#ffdc46;fill-opacity:1;stroke:none;stroke-width:0.4;stroke-dasharray:none"
           d="m 165.33736,245.38383 3.6803,-6.1645 -1.1961,6.53252 7.08458,-8.18866 -5.52046,9.66079 5.61246,-3.31227 -4.9684,5.33643 7.17657,3.03625 -6.90055,-0.46004 4.8764,3.95631 -6.80856,-3.31226 -1.93216,8.18866 -1.47212,-7.82063 c 0,0 -1.2881,9.75278 -1.65614,9.84479 -0.36803,0.092 -1.38011,-9.84479 -1.38011,-9.84479 l -5.24441,2.66821 4.78438,-5.0604 -6.80855,2.4842 c 0,0 6.07249,-4.23235 5.70446,-3.95632 -0.36803,0.27602 -7.63662,0 -7.63662,0 l 9.20074,-1.65614 -6.44052,-7.5446 7.54462,5.61244 -3.86432,-9.01672 z"
           id="path18"
           sodipodi:nodetypes="cccccccccccccsccccscccccc" /><circle
           style="opacity:1;fill:#ffcc00;fill-opacity:1;stroke:none;stroke-width:0.4;stroke-dasharray:none"
           id="path17"
           cx="165.38335"
           cy="248.65009"
           r="1.7021375" /></g><g
         id="g22"
         transform="rotate(12.081198,523.36225,-134.22775)"><path
           style="opacity:1;fill:#eb0000;fill-opacity:1;stroke:none;stroke-width:0.4;stroke-dasharray:none"
           d="m 242.8362,213.09547 c 0.60356,0.79188 1.82038,0.6076 2.51047,0.18796 0.81152,-1.056 0.96216,-1.84072 -0.10925,-3.58142 1.00049,-0.25603 2.81745,-0.92956 2.68767,-2.28344 -0.18457,-0.88886 -1.72089,-0.93543 -2.75734,-0.53339 1.22465,-0.69491 0.75353,-2.17445 -0.37186,-2.4692 -1.48732,-0.19728 -1.85166,1.12343 -1.98956,2.26478 -0.43341,-0.99368 -1.47032,-1.90254 -2.63377,-1.2248 -1.50474,1.13207 -0.83899,3.23888 -0.47487,4.01372 -0.72268,-0.0629 -1.41217,-0.0742 -1.36974,1.05307 0.11342,0.90403 0.73184,0.86313 1.30277,0.85214 -1.45802,1.77605 -0.42639,2.76918 0.4213,3.17849 0.8602,0.42272 2.10968,0.0332 2.78418,-1.45791 z"
           id="path19"
           sodipodi:nodetypes="ccccccccccccc" /><path
           style="opacity:1;fill:none;fill-opacity:0.411972;stroke:#008000;stroke-width:0.4;stroke-dasharray:none"
           d="m 242.86555,212.84078 c 0.52047,2.47225 -1.46383,6.40832 -1.36624,8.36009 0.0975,1.95042 1.106,2.89513 1.13853,4.42402 -0.0976,1.78913 -0.16266,1.69154 -0.16266,1.69154"
           id="path20"
           sodipodi:nodetypes="cscc" /><path
           style="opacity:1;fill:#008000;fill-opacity:1;stroke:none;stroke-width:0.4;stroke-dasharray:none"
           d="m 239.48247,216.09373 c -1.36623,4.58667 -0.21726,6.42655 0.94337,6.11556 2.60675,-0.69848 -0.3027,-3.60801 -0.94337,-6.11556 z"
           id="path21"
           sodipodi:nodetypes="csc" /><path
           style="opacity:1;fill:#008000;fill-opacity:1;stroke:none;stroke-width:0.4;stroke-dasharray:none"
           d="m 245.14261,220.84304 c -1.0084,1.65902 -3.98287,3.48594 -1.93549,4.668 1.70366,0.9836 2.44605,-1.6725 1.93549,-4.668 z"
           id="path22"
           sodipodi:nodetypes="csc" /><ellipse
           style="opacity:1;fill:#ffcc00;fill-opacity:1;stroke:none;stroke-width:0.520972;stroke-dasharray:none"
           id="ellipse22"
           ry="2.0561657"
           rx="1.1305133"
           cy="155.50183"
           cx="293.42017"
           transform="matrix(0.97841563,0.20664669,-0.28504665,0.95851365,0,0)" /></g><g
         id="g26"
         transform="rotate(-24.263139,9.1985365,517.00403)"><path
           style="opacity:1;fill:#eb0000;fill-opacity:1;stroke:none;stroke-width:0.4;stroke-dasharray:none"
           d="m 242.8362,213.09547 c 0.60356,0.79188 1.82038,0.6076 2.51047,0.18796 0.81152,-1.056 0.96216,-1.84072 -0.10925,-3.58142 1.00049,-0.25603 2.81745,-0.92956 2.68767,-2.28344 -0.18457,-0.88886 -1.72089,-0.93543 -2.75734,-0.53339 1.22465,-0.69491 0.75353,-2.17445 -0.37186,-2.4692 -1.48732,-0.19728 -1.85166,1.12343 -1.98956,2.26478 -0.43341,-0.99368 -1.47032,-1.90254 -2.63377,-1.2248 -1.50474,1.13207 -0.83899,3.23888 -0.47487,4.01372 -0.72268,-0.0629 -1.41217,-0.0742 -1.36974,1.05307 0.11342,0.90403 0.73184,0.86313 1.30277,0.85214 -1.45802,1.77605 -0.42639,2.76918 0.4213,3.17849 0.8602,0.42272 2.10968,0.0332 2.78418,-1.45791 z"
           id="path23"
           sodipodi:nodetypes="ccccccccccccc" /><path
           style="opacity:1;fill:none;fill-opacity:0.411972;stroke:#008000;stroke-width:0.4;stroke-dasharray:none"
           d="m 242.86555,212.84078 c 0.52047,2.47225 -1.46383,6.40832 -1.36624,8.36009 0.0975,1.95042 1.106,2.89513 1.13853,4.42402 -0.0976,1.78913 -0.16266,1.69154 -0.16266,1.69154"
           id="path24"
           sodipodi:nodetypes="cscc" /><path
           style="opacity:1;fill:#008000;fill-opacity:1;stroke:none;stroke-width:0.4;stroke-dasharray:none"
           d="m 239.48247,216.09373 c -1.36623,4.58667 -0.21726,6.42655 0.94337,6.11556 2.60675,-0.69848 -0.3027,-3.60801 -0.94337,-6.11556 z"
           id="path25"
           sodipodi:nodetypes="csc" /><path
           style="opacity:1;fill:#008000;fill-opacity:1;stroke:none;stroke-width:0.4;stroke-dasharray:none"
           d="m 245.14261,220.84304 c -1.0084,1.65902 -3.98287,3.48594 -1.93549,4.668 1.70366,0.9836 2.44605,-1.6725 1.93549,-4.668 z"
           id="path26"
           sodipodi:nodetypes="csc" /><ellipse
           style="opacity:1;fill:#ffcc00;fill-opacity:1;stroke:none;stroke-width:0.520972;stroke-dasharray:none"
           id="ellipse26"
           ry="2.0561657"
           rx="1.1305133"
           cy="155.50183"
           cx="293.42017"
           transform="matrix(0.97841563,0.20664669,-0.28504665,0.95851365,0,0)" /></g><g
         id="g28"
         transform="matrix(0.48791913,-0.18026261,0.18533538,0.50164966,35.889158,90.035087)"><path
           style="opacity:1;fill:#ffffff;fill-opacity:1;stroke:none;stroke-width:0.4;stroke-dasharray:none"
           d="m 179.78252,227.7184 c 1.81676,4.94398 5.85013,13.85608 -3.22025,17.66543 7.70159,-0.62084 11.42318,3.85527 12.513,10.58085 -4.15843,7.14355 -14.53312,7.01057 -18.95353,-0.64405 7.57876,12.80856 -6.07248,18.6775 -6.07248,18.6775 -3.61671,-2.60912 -8.74118,-6.10268 -6.34852,-15.36523 -6.70497,3.01953 -12.30931,2.40695 -16.56134,-2.66822 2.30892,-10.64297 6.75303,-11.12055 12.69703,-11.31691 -5.61183,-3.05702 -6.21433,-8.71146 -5.24442,-15.18123 5.86999,-1.09193 15.66532,-2.1022 16.1933,9.8448 2.13618,-10.11679 9.01926,-11.08058 14.99721,-11.59294 z"
           id="path27"
           sodipodi:nodetypes="ccccccccccc" /><path
           style="opacity:1;fill:#ffdc46;fill-opacity:1;stroke:none;stroke-width:0.4;stroke-dasharray:none"
           d="m 165.33736,245.38383 3.6803,-6.1645 -1.1961,6.53252 7.08458,-8.18866 -5.52046,9.66079 5.61246,-3.31227 -4.9684,5.33643 7.17657,3.03625 -6.90055,-0.46004 4.8764,3.95631 -6.80856,-3.31226 -1.93216,8.18866 -1.47212,-7.82063 c 0,0 -1.2881,9.75278 -1.65614,9.84479 -0.36803,0.092 -1.38011,-9.84479 -1.38011,-9.84479 l -5.24441,2.66821 4.78438,-5.0604 -6.80855,2.4842 c 0,0 6.07249,-4.23235 5.70446,-3.95632 -0.36803,0.27602 -7.63662,0 -7.63662,0 l 9.20074,-1.65614 -6.44052,-7.5446 7.54462,5.61244 -3.86432,-9.01672 z"
           id="path28"
           sodipodi:nodetypes="cccccccccccccsccccscccccc" /><circle
           style="opacity:1;fill:#ffcc00;fill-opacity:1;stroke:none;stroke-width:0.4;stroke-dasharray:none"
           id="circle28"
           cx="165.38335"
           cy="248.65009"
           r="1.7021375" /></g><g
         id="g36"
         transform="rotate(-29.525973,168.87051,290.30691)"><path
           style="opacity:1;fill:#eb0000;fill-opacity:1;stroke:none;stroke-width:0.4;stroke-dasharray:none"
           d="m 242.8362,213.09547 c 0.60356,0.79188 1.82038,0.6076 2.51047,0.18796 0.81152,-1.056 0.96216,-1.84072 -0.10925,-3.58142 1.00049,-0.25603 2.81745,-0.92956 2.68767,-2.28344 -0.18457,-0.88886 -1.72089,-0.93543 -2.75734,-0.53339 1.22465,-0.69491 0.75353,-2.17445 -0.37186,-2.4692 -1.48732,-0.19728 -1.85166,1.12343 -1.98956,2.26478 -0.43341,-0.99368 -1.47032,-1.90254 -2.63377,-1.2248 -1.50474,1.13207 -0.83899,3.23888 -0.47487,4.01372 -0.72268,-0.0629 -1.41217,-0.0742 -1.36974,1.05307 0.11342,0.90403 0.73184,0.86313 1.30277,0.85214 -1.45802,1.77605 -0.42639,2.76918 0.4213,3.17849 0.8602,0.42272 2.10968,0.0332 2.78418,-1.45791 z"
           id="path33"
           sodipodi:nodetypes="ccccccccccccc" /><path
           style="opacity:1;fill:none;fill-opacity:0.411972;stroke:#008000;stroke-width:0.4;stroke-dasharray:none"
           d="m 242.86555,212.84078 c 0.52047,2.47225 -1.46383,6.40832 -1.36624,8.36009 0.0975,1.95042 1.106,2.89513 1.13853,4.42402 -0.0976,1.78913 -0.16266,1.69154 -0.16266,1.69154"
           id="path34"
           sodipodi:nodetypes="cscc" /><path
           style="opacity:1;fill:#008000;fill-opacity:1;stroke:none;stroke-width:0.4;stroke-dasharray:none"
           d="m 239.48247,216.09373 c -1.36623,4.58667 -0.21726,6.42655 0.94337,6.11556 2.60675,-0.69848 -0.3027,-3.60801 -0.94337,-6.11556 z"
           id="path35"
           sodipodi:nodetypes="csc" /><path
           style="opacity:1;fill:#008000;fill-opacity:1;stroke:none;stroke-width:0.4;stroke-dasharray:none"
           d="m 245.14261,220.84304 c -1.0084,1.65902 -3.98287,3.48594 -1.93549,4.668 1.70366,0.9836 2.44605,-1.6725 1.93549,-4.668 z"
           id="path36"
           sodipodi:nodetypes="csc" /><ellipse
           style="opacity:1;fill:#ffcc00;fill-opacity:1;stroke:none;stroke-width:0.520972;stroke-dasharray:none"
           id="ellipse36"
           ry="2.0561657"
           rx="1.1305133"
           cy="155.50183"
           cx="293.42017"
           transform="matrix(0.97841563,0.20664669,-0.28504665,0.95851365,0,0)" /></g><g
         id="g40"
         transform="rotate(-29.525973,164.4253,392.19201)"><path
           style="opacity:1;fill:#eb0000;fill-opacity:1;stroke:none;stroke-width:0.4;stroke-dasharray:none"
           d="m 242.8362,213.09547 c 0.60356,0.79188 1.82038,0.6076 2.51047,0.18796 0.81152,-1.056 0.96216,-1.84072 -0.10925,-3.58142 1.00049,-0.25603 2.81745,-0.92956 2.68767,-2.28344 -0.18457,-0.88886 -1.72089,-0.93543 -2.75734,-0.53339 1.22465,-0.69491 0.75353,-2.17445 -0.37186,-2.4692 -1.48732,-0.19728 -1.85166,1.12343 -1.98956,2.26478 -0.43341,-0.99368 -1.47032,-1.90254 -2.63377,-1.2248 -1.50474,1.13207 -0.83899,3.23888 -0.47487,4.01372 -0.72268,-0.0629 -1.41217,-0.0742 -1.36974,1.05307 0.11342,0.90403 0.73184,0.86313 1.30277,0.85214 -1.45802,1.77605 -0.42639,2.76918 0.4213,3.17849 0.8602,0.42272 2.10968,0.0332 2.78418,-1.45791 z"
           id="path37"
           sodipodi:nodetypes="ccccccccccccc" /><path
           style="opacity:1;fill:none;fill-opacity:0.411972;stroke:#008000;stroke-width:0.4;stroke-dasharray:none"
           d="m 242.86555,212.84078 c 0.52047,2.47225 -1.46383,6.40832 -1.36624,8.36009 0.0975,1.95042 1.106,2.89513 1.13853,4.42402 -0.0976,1.78913 -0.16266,1.69154 -0.16266,1.69154"
           id="path38"
           sodipodi:nodetypes="cscc" /><path
           style="opacity:1;fill:#008000;fill-opacity:1;stroke:none;stroke-width:0.4;stroke-dasharray:none"
           d="m 239.48247,216.09373 c -1.36623,4.58667 -0.21726,6.42655 0.94337,6.11556 2.60675,-0.69848 -0.3027,-3.60801 -0.94337,-6.11556 z"
           id="path39"
           sodipodi:nodetypes="csc" /><path
           style="opacity:1;fill:#008000;fill-opacity:1;stroke:none;stroke-width:0.4;stroke-dasharray:none"
           d="m 245.14261,220.84304 c -1.0084,1.65902 -3.98287,3.48594 -1.93549,4.668 1.70366,0.9836 2.44605,-1.6725 1.93549,-4.668 z"
           id="path40"
           sodipodi:nodetypes="csc" /><ellipse
           style="opacity:1;fill:#ffcc00;fill-opacity:1;stroke:none;stroke-width:0.520972;stroke-dasharray:none"
           id="ellipse40"
           ry="2.0561657"
           rx="1.1305133"
           cy="155.50183"
           cx="293.42017"
           transform="matrix(0.97841563,0.20664669,-0.28504665,0.95851365,0,0)" /></g><g
         id="g44"
         inkscape:label="flor azul"
         transform="rotate(-62.675609,-8.2205477,105.58073)"><g
           id="g42"><path
             style="opacity:1;fill:#3bdf3b;fill-opacity:1;stroke:none;stroke-width:0.264999;stroke-dasharray:none"
             d="m 29.9265,225.26475 c 0.786725,-3.25509 4.408169,-2.53655 6.496778,-3.5841 2.935168,7.10551 -1.337467,7.5486 -2.657616,9.7345 l -3.968603,1.69154 z"
             id="path41"
             sodipodi:nodetypes="ccccc" /><path
             style="opacity:1;fill:#029c02;fill-opacity:1;stroke:none;stroke-width:0.264999;stroke-dasharray:none"
             d="m 30.187414,232.29345 c 1.929339,-2.95046 4.157374,-5.27783 5.855316,-9.69381 0.370789,2.48521 -4.919791,10.07633 -5.237255,9.88898 -0.11206,-0.0661 -0.618061,-0.19517 -0.618061,-0.19517 z"
             id="path42"
             sodipodi:nodetypes="ccsc" /></g><path
           style="opacity:1;fill:#3131ff;fill-opacity:1;stroke:none;stroke-width:0.264583"
           d="m 25.177863,237.40058 c -3.246783,0.73439 -6.045867,2.89718 -10.441982,0.52048 0.382634,-2.44376 2.413193,-4.02433 4.586666,-5.53003 -1.7756,-1.0898 -2.420668,-0.82936 -2.895128,0.68312 -3.50178,-3.2222 1.170141,-5.75514 3.51319,-5.82278 1.764541,-0.0261 3.061257,0.3241 4.391487,1.17106 -0.342661,-1.89322 0.672548,-3.56013 2.407186,-5.10714 6.534108,1.20418 6.808406,5.05785 3.903545,9.07574 1.205815,-1.76948 2.502776,-2.2682 4.197268,-2.89744 3.356831,-0.2514 5.972959,0.69678 7.968783,1.46614 -2.253359,1.89991 -2.390001,4.90052 -8.587803,4.74932 4.673163,5.20033 1.726333,7.57726 0.910829,8.84803 -1.520014,-0.95223 -3.463078,-1.28623 -3.968605,-3.25295 -1.382167,2.63491 -3.87191,4.94516 -6.720817,5.0286 -0.613617,-2.99272 -0.303661,-5.93943 0.735381,-8.93215 z"
           id="path43"
           sodipodi:nodetypes="ccccccccccccccc" /><circle
           style="opacity:1;fill:#3131ff;fill-opacity:1;stroke:#d40000;stroke-width:0.264999;stroke-dasharray:none"
           id="circle43"
           cx="28.040464"
           cy="234.79822"
           r="2.0168314" /><path
           style="opacity:1;fill:#9f9fff;fill-opacity:1;stroke:none;stroke-width:0.264999;stroke-dasharray:none"
           d="m 25.854089,233.42286 c 0.09653,-1.11671 0.443237,-3.1322 -0.046,-4.60037 l 1.058085,2.71422 c 0.891667,-0.47161 1.286339,-1.77154 1.840149,-2.80623 -0.827119,3.22239 0.772583,3.71719 1.472116,1.56413 0.360181,-1.10858 -0.694434,2.5762 -0.230018,2.5762 0.897569,0.19417 1.708814,-0.0433 2.484199,-0.46003 0,0 -1.211686,1.44944 -1.012081,1.70214 0.322027,0.40769 2.162175,-0.0423 2.162175,-0.23002 -0.408725,0.57268 -1.035756,0.92706 -0.87407,2.07016 0.263767,1.13271 1.154992,1.84711 1.748142,2.76023 -1.473269,-0.95519 -2.590017,-1.48256 -3.45028,-1.70214 0.08561,0.80633 0.470026,1.91148 0.920074,3.08225 l -2.438195,-3.22027 c -0.519087,0.55663 -0.689284,3.23715 -0.736061,4.73839 l -0.414033,-2.25418 c -0.325281,-0.079 -0.964372,1.09726 -1.518122,1.93215 0.433017,-1.43244 0.578259,-2.76895 0.276022,-3.95631 l -1.334109,2.25417 c 0.141155,-1.18076 0.598218,-2.36152 0.184015,-3.54228 -1.043788,-0.61286 -3.274764,-0.63213 -5.244424,-0.78206 1.705586,-0.1062 3.427568,-0.20692 4.416358,-0.55205 -0.367189,-0.97602 -2.259875,-2.46054 -3.634294,-3.7723 1.702139,1.1961 3.358273,2.34619 4.370356,2.4842 z"
           id="path44"
           sodipodi:nodetypes="ccccsccscccccccccccccccc" /><circle
           style="opacity:1;fill:#1111a0;fill-opacity:1;stroke:none;stroke-width:0.264999;stroke-dasharray:none"
           id="circle44"
           cx="28.361292"
           cy="234.77997"
           r="1.4031134" /></g><g
         id="g48"
         inkscape:label="flor azul"
         transform="rotate(-62.675609,18.122788,43.949469)"><g
           id="g46"><path
             style="opacity:1;fill:#3bdf3b;fill-opacity:1;stroke:none;stroke-width:0.264999;stroke-dasharray:none"
             d="m 29.9265,225.26475 c 0.786725,-3.25509 4.408169,-2.53655 6.496778,-3.5841 2.935168,7.10551 -1.337467,7.5486 -2.657616,9.7345 l -3.968603,1.69154 z"
             id="path45"
             sodipodi:nodetypes="ccccc" /><path
             style="opacity:1;fill:#029c02;fill-opacity:1;stroke:none;stroke-width:0.264999;stroke-dasharray:none"
             d="m 30.187414,232.29345 c 1.929339,-2.95046 4.157374,-5.27783 5.855316,-9.69381 0.370789,2.48521 -4.919791,10.07633 -5.237255,9.88898 -0.11206,-0.0661 -0.618061,-0.19517 -0.618061,-0.19517 z"
             id="path46"
             sodipodi:nodetypes="ccsc" /></g><path
           style="opacity:1;fill:#3131ff;fill-opacity:1;stroke:none;stroke-width:0.264583"
           d="m 25.177863,237.40058 c -3.246783,0.73439 -6.045867,2.89718 -10.441982,0.52048 0.382634,-2.44376 2.413193,-4.02433 4.586666,-5.53003 -1.7756,-1.0898 -2.420668,-0.82936 -2.895128,0.68312 -3.50178,-3.2222 1.170141,-5.75514 3.51319,-5.82278 1.764541,-0.0261 3.061257,0.3241 4.391487,1.17106 -0.342661,-1.89322 0.672548,-3.56013 2.407186,-5.10714 6.534108,1.20418 6.808406,5.05785 3.903545,9.07574 1.205815,-1.76948 2.502776,-2.2682 4.197268,-2.89744 3.356831,-0.2514 5.972959,0.69678 7.968783,1.46614 -2.253359,1.89991 -2.390001,4.90052 -8.587803,4.74932 4.673163,5.20033 1.726333,7.57726 0.910829,8.84803 -1.520014,-0.95223 -3.463078,-1.28623 -3.968605,-3.25295 -1.382167,2.63491 -3.87191,4.94516 -6.720817,5.0286 -0.613617,-2.99272 -0.303661,-5.93943 0.735381,-8.93215 z"
           id="path47"
           sodipodi:nodetypes="ccccccccccccccc" /><circle
           style="opacity:1;fill:#3131ff;fill-opacity:1;stroke:#d40000;stroke-width:0.264999;stroke-dasharray:none"
           id="circle47"
           cx="28.040464"
           cy="234.79822"
           r="2.0168314" /><path
           style="opacity:1;fill:#9f9fff;fill-opacity:1;stroke:none;stroke-width:0.264999;stroke-dasharray:none"
           d="m 25.854089,233.42286 c 0.09653,-1.11671 0.443237,-3.1322 -0.046,-4.60037 l 1.058085,2.71422 c 0.891667,-0.47161 1.286339,-1.77154 1.840149,-2.80623 -0.827119,3.22239 0.772583,3.71719 1.472116,1.56413 0.360181,-1.10858 -0.694434,2.5762 -0.230018,2.5762 0.897569,0.19417 1.708814,-0.0433 2.484199,-0.46003 0,0 -1.211686,1.44944 -1.012081,1.70214 0.322027,0.40769 2.162175,-0.0423 2.162175,-0.23002 -0.408725,0.57268 -1.035756,0.92706 -0.87407,2.07016 0.263767,1.13271 1.154992,1.84711 1.748142,2.76023 -1.473269,-0.95519 -2.590017,-1.48256 -3.45028,-1.70214 0.08561,0.80633 0.470026,1.91148 0.920074,3.08225 l -2.438195,-3.22027 c -0.519087,0.55663 -0.689284,3.23715 -0.736061,4.73839 l -0.414033,-2.25418 c -0.325281,-0.079 -0.964372,1.09726 -1.518122,1.93215 0.433017,-1.43244 0.578259,-2.76895 0.276022,-3.95631 l -1.334109,2.25417 c 0.141155,-1.18076 0.598218,-2.36152 0.184015,-3.54228 -1.043788,-0.61286 -3.274764,-0.63213 -5.244424,-0.78206 1.705586,-0.1062 3.427568,-0.20692 4.416358,-0.55205 -0.367189,-0.97602 -2.259875,-2.46054 -3.634294,-3.7723 1.702139,1.1961 3.358273,2.34619 4.370356,2.4842 z"
           id="path48"
           sodipodi:nodetypes="ccccsccscccccccccccccccc" /><circle
           style="opacity:1;fill:#1111a0;fill-opacity:1;stroke:none;stroke-width:0.264999;stroke-dasharray:none"
           id="circle48"
           cx="28.361292"
           cy="234.77997"
           r="1.4031134" /></g><g
         id="g50"
         transform="matrix(-0.10474122,-0.40632039,0.41775465,-0.10768874,106.51817,260.15884)"><path
           style="opacity:1;fill:#ffffff;fill-opacity:1;stroke:none;stroke-width:0.4;stroke-dasharray:none"
           d="m 179.78252,227.7184 c 1.81676,4.94398 5.85013,13.85608 -3.22025,17.66543 7.70159,-0.62084 11.42318,3.85527 12.513,10.58085 -4.15843,7.14355 -14.53312,7.01057 -18.95353,-0.64405 7.57876,12.80856 -6.07248,18.6775 -6.07248,18.6775 -3.61671,-2.60912 -8.74118,-6.10268 -6.34852,-15.36523 -6.70497,3.01953 -12.30931,2.40695 -16.56134,-2.66822 2.30892,-10.64297 6.75303,-11.12055 12.69703,-11.31691 -5.61183,-3.05702 -6.21433,-8.71146 -5.24442,-15.18123 5.86999,-1.09193 15.66532,-2.1022 16.1933,9.8448 2.13618,-10.11679 9.01926,-11.08058 14.99721,-11.59294 z"
           id="path49"
           sodipodi:nodetypes="ccccccccccc" /><path
           style="opacity:1;fill:#ffdc46;fill-opacity:1;stroke:none;stroke-width:0.4;stroke-dasharray:none"
           d="m 165.33736,245.38383 3.6803,-6.1645 -1.1961,6.53252 7.08458,-8.18866 -5.52046,9.66079 5.61246,-3.31227 -4.9684,5.33643 7.17657,3.03625 -6.90055,-0.46004 4.8764,3.95631 -6.80856,-3.31226 -1.93216,8.18866 -1.47212,-7.82063 c 0,0 -1.2881,9.75278 -1.65614,9.84479 -0.36803,0.092 -1.38011,-9.84479 -1.38011,-9.84479 l -5.24441,2.66821 4.78438,-5.0604 -6.80855,2.4842 c 0,0 6.07249,-4.23235 5.70446,-3.95632 -0.36803,0.27602 -7.63662,0 -7.63662,0 l 9.20074,-1.65614 -6.44052,-7.5446 7.54462,5.61244 -3.86432,-9.01672 z"
           id="path50"
           sodipodi:nodetypes="cccccccccccccsccccscccccc" /><circle
           style="opacity:1;fill:#ffcc00;fill-opacity:1;stroke:none;stroke-width:0.4;stroke-dasharray:none"
           id="circle50"
           cx="165.38335"
           cy="248.65009"
           r="1.7021375" /></g><g
         id="g54"
         inkscape:label="flor azul"
         transform="matrix(-0.21829818,0.71007562,-0.74956144,-0.18613815,340.0327,179.01165)"><g
           id="g52"><path
             style="opacity:1;fill:#3bdf3b;fill-opacity:1;stroke:none;stroke-width:0.264999;stroke-dasharray:none"
             d="m 29.9265,225.26475 c 0.786725,-3.25509 4.408169,-2.53655 6.496778,-3.5841 2.935168,7.10551 -1.337467,7.5486 -2.657616,9.7345 l -3.968603,1.69154 z"
             id="path51"
             sodipodi:nodetypes="ccccc" /><path
             style="opacity:1;fill:#029c02;fill-opacity:1;stroke:none;stroke-width:0.264999;stroke-dasharray:none"
             d="m 30.187414,232.29345 c 1.929339,-2.95046 4.157374,-5.27783 5.855316,-9.69381 0.370789,2.48521 -4.919791,10.07633 -5.237255,9.88898 -0.11206,-0.0661 -0.618061,-0.19517 -0.618061,-0.19517 z"
             id="path52"
             sodipodi:nodetypes="ccsc" /></g><path
           style="opacity:1;fill:#3131ff;fill-opacity:1;stroke:none;stroke-width:0.264583"
           d="m 25.177863,237.40058 c -3.246783,0.73439 -6.045867,2.89718 -10.441982,0.52048 0.382634,-2.44376 2.413193,-4.02433 4.586666,-5.53003 -1.7756,-1.0898 -2.420668,-0.82936 -2.895128,0.68312 -3.50178,-3.2222 1.170141,-5.75514 3.51319,-5.82278 1.764541,-0.0261 3.061257,0.3241 4.391487,1.17106 -0.342661,-1.89322 0.672548,-3.56013 2.407186,-5.10714 6.534108,1.20418 6.808406,5.05785 3.903545,9.07574 1.205815,-1.76948 2.502776,-2.2682 4.197268,-2.89744 3.356831,-0.2514 5.972959,0.69678 7.968783,1.46614 -2.253359,1.89991 -2.390001,4.90052 -8.587803,4.74932 4.673163,5.20033 1.726333,7.57726 0.910829,8.84803 -1.520014,-0.95223 -3.463078,-1.28623 -3.968605,-3.25295 -1.382167,2.63491 -3.87191,4.94516 -6.720817,5.0286 -0.613617,-2.99272 -0.303661,-5.93943 0.735381,-8.93215 z"
           id="path53"
           sodipodi:nodetypes="ccccccccccccccc" /><circle
           style="opacity:1;fill:#3131ff;fill-opacity:1;stroke:#d40000;stroke-width:0.264999;stroke-dasharray:none"
           id="circle53"
           cx="28.040464"
           cy="234.79822"
           r="2.0168314" /><path
           style="opacity:1;fill:#9f9fff;fill-opacity:1;stroke:none;stroke-width:0.264999;stroke-dasharray:none"
           d="m 25.854089,233.42286 c 0.09653,-1.11671 0.443237,-3.1322 -0.046,-4.60037 l 1.058085,2.71422 c 0.891667,-0.47161 1.286339,-1.77154 1.840149,-2.80623 -0.827119,3.22239 0.772583,3.71719 1.472116,1.56413 0.360181,-1.10858 -0.694434,2.5762 -0.230018,2.5762 0.897569,0.19417 1.708814,-0.0433 2.484199,-0.46003 0,0 -1.211686,1.44944 -1.012081,1.70214 0.322027,0.40769 2.162175,-0.0423 2.162175,-0.23002 -0.408725,0.57268 -1.035756,0.92706 -0.87407,2.07016 0.263767,1.13271 1.154992,1.84711 1.748142,2.76023 -1.473269,-0.95519 -2.590017,-1.48256 -3.45028,-1.70214 0.08561,0.80633 0.470026,1.91148 0.920074,3.08225 l -2.438195,-3.22027 c -0.519087,0.55663 -0.689284,3.23715 -0.736061,4.73839 l -0.414033,-2.25418 c -0.325281,-0.079 -0.964372,1.09726 -1.518122,1.93215 0.433017,-1.43244 0.578259,-2.76895 0.276022,-3.95631 l -1.334109,2.25417 c 0.141155,-1.18076 0.598218,-2.36152 0.184015,-3.54228 -1.043788,-0.61286 -3.274764,-0.63213 -5.244424,-0.78206 1.705586,-0.1062 3.427568,-0.20692 4.416358,-0.55205 -0.367189,-0.97602 -2.259875,-2.46054 -3.634294,-3.7723 1.702139,1.1961 3.358273,2.34619 4.370356,2.4842 z"
           id="path54"
           sodipodi:nodetypes="ccccsccscccccccccccccccc" /><circle
           style="opacity:1;fill:#1111a0;fill-opacity:1;stroke:none;stroke-width:0.264999;stroke-dasharray:none"
           id="circle54"
           cx="28.361292"
           cy="234.77997"
           r="1.4031134" /></g><g
         id="g56"
         transform="matrix(0.39441579,0.04180227,-0.04297863,0.40551505,109.86124,13.517715)"><path
           style="opacity:1;fill:#ffffff;fill-opacity:1;stroke:none;stroke-width:0.4;stroke-dasharray:none"
           d="m 179.78252,227.7184 c 1.81676,4.94398 5.85013,13.85608 -3.22025,17.66543 7.70159,-0.62084 11.42318,3.85527 12.513,10.58085 -4.15843,7.14355 -14.53312,7.01057 -18.95353,-0.64405 7.57876,12.80856 -6.07248,18.6775 -6.07248,18.6775 -3.61671,-2.60912 -8.74118,-6.10268 -6.34852,-15.36523 -6.70497,3.01953 -12.30931,2.40695 -16.56134,-2.66822 2.30892,-10.64297 6.75303,-11.12055 12.69703,-11.31691 -5.61183,-3.05702 -6.21433,-8.71146 -5.24442,-15.18123 5.86999,-1.09193 15.66532,-2.1022 16.1933,9.8448 2.13618,-10.11679 9.01926,-11.08058 14.99721,-11.59294 z"
           id="path55"
           sodipodi:nodetypes="ccccccccccc" /><path
           style="opacity:1;fill:#ffdc46;fill-opacity:1;stroke:none;stroke-width:0.4;stroke-dasharray:none"
           d="m 165.33736,245.38383 3.6803,-6.1645 -1.1961,6.53252 7.08458,-8.18866 -5.52046,9.66079 5.61246,-3.31227 -4.9684,5.33643 7.17657,3.03625 -6.90055,-0.46004 4.8764,3.95631 -6.80856,-3.31226 -1.93216,8.18866 -1.47212,-7.82063 c 0,0 -1.2881,9.75278 -1.65614,9.84479 -0.36803,0.092 -1.38011,-9.84479 -1.38011,-9.84479 l -5.24441,2.66821 4.78438,-5.0604 -6.80855,2.4842 c 0,0 6.07249,-4.23235 5.70446,-3.95632 -0.36803,0.27602 -7.63662,0 -7.63662,0 l 9.20074,-1.65614 -6.44052,-7.5446 7.54462,5.61244 -3.86432,-9.01672 z"
           id="path56"
           sodipodi:nodetypes="cccccccccccccsccccscccccc" /><circle
           style="opacity:1;fill:#ffcc00;fill-opacity:1;stroke:none;stroke-width:0.4;stroke-dasharray:none"
           id="circle56"
           cx="165.38335"
           cy="248.65009"
           r="1.7021375" /></g><g
         id="g60"
         transform="rotate(9.0943546,924.56628,-238.21621)"><path
           style="opacity:1;fill:#eb0000;fill-opacity:1;stroke:none;stroke-width:0.4;stroke-dasharray:none"
           d="m 242.8362,213.09547 c 0.60356,0.79188 1.82038,0.6076 2.51047,0.18796 0.81152,-1.056 0.96216,-1.84072 -0.10925,-3.58142 1.00049,-0.25603 2.81745,-0.92956 2.68767,-2.28344 -0.18457,-0.88886 -1.72089,-0.93543 -2.75734,-0.53339 1.22465,-0.69491 0.75353,-2.17445 -0.37186,-2.4692 -1.48732,-0.19728 -1.85166,1.12343 -1.98956,2.26478 -0.43341,-0.99368 -1.47032,-1.90254 -2.63377,-1.2248 -1.50474,1.13207 -0.83899,3.23888 -0.47487,4.01372 -0.72268,-0.0629 -1.41217,-0.0742 -1.36974,1.05307 0.11342,0.90403 0.73184,0.86313 1.30277,0.85214 -1.45802,1.77605 -0.42639,2.76918 0.4213,3.17849 0.8602,0.42272 2.10968,0.0332 2.78418,-1.45791 z"
           id="path57"
           sodipodi:nodetypes="ccccccccccccc" /><path
           style="opacity:1;fill:none;fill-opacity:0.411972;stroke:#008000;stroke-width:0.4;stroke-dasharray:none"
           d="m 242.86555,212.84078 c 0.52047,2.47225 -1.46383,6.40832 -1.36624,8.36009 0.0975,1.95042 1.106,2.89513 1.13853,4.42402 -0.0976,1.78913 -0.16266,1.69154 -0.16266,1.69154"
           id="path58"
           sodipodi:nodetypes="cscc" /><path
           style="opacity:1;fill:#008000;fill-opacity:1;stroke:none;stroke-width:0.4;stroke-dasharray:none"
           d="m 239.48247,216.09373 c -1.36623,4.58667 -0.21726,6.42655 0.94337,6.11556 2.60675,-0.69848 -0.3027,-3.60801 -0.94337,-6.11556 z"
           id="path59"
           sodipodi:nodetypes="csc" /><path
           style="opacity:1;fill:#008000;fill-opacity:1;stroke:none;stroke-width:0.4;stroke-dasharray:none"
           d="m 245.14261,220.84304 c -1.0084,1.65902 -3.98287,3.48594 -1.93549,4.668 1.70366,0.9836 2.44605,-1.6725 1.93549,-4.668 z"
           id="path60"
           sodipodi:nodetypes="csc" /><ellipse
           style="opacity:1;fill:#ffcc00;fill-opacity:1;stroke:none;stroke-width:0.520972;stroke-dasharray:none"
           id="ellipse60"
           ry="2.0561657"
           rx="1.1305133"
           cy="155.50183"
           cx="293.42017"
           transform="matrix(0.97841563,0.20664669,-0.28504665,0.95851365,0,0)" /></g><g
         id="g64"
         transform="rotate(15.865618,567.66227,-314.64791)"><path
           style="opacity:1;fill:#eb0000;fill-opacity:1;stroke:none;stroke-width:0.4;stroke-dasharray:none"
           d="m 242.8362,213.09547 c 0.60356,0.79188 1.82038,0.6076 2.51047,0.18796 0.81152,-1.056 0.96216,-1.84072 -0.10925,-3.58142 1.00049,-0.25603 2.81745,-0.92956 2.68767,-2.28344 -0.18457,-0.88886 -1.72089,-0.93543 -2.75734,-0.53339 1.22465,-0.69491 0.75353,-2.17445 -0.37186,-2.4692 -1.48732,-0.19728 -1.85166,1.12343 -1.98956,2.26478 -0.43341,-0.99368 -1.47032,-1.90254 -2.63377,-1.2248 -1.50474,1.13207 -0.83899,3.23888 -0.47487,4.01372 -0.72268,-0.0629 -1.41217,-0.0742 -1.36974,1.05307 0.11342,0.90403 0.73184,0.86313 1.30277,0.85214 -1.45802,1.77605 -0.42639,2.76918 0.4213,3.17849 0.8602,0.42272 2.10968,0.0332 2.78418,-1.45791 z"
           id="path61"
           sodipodi:nodetypes="ccccccccccccc" /><path
           style="opacity:1;fill:none;fill-opacity:0.411972;stroke:#008000;stroke-width:0.4;stroke-dasharray:none"
           d="m 242.86555,212.84078 c 0.52047,2.47225 -1.46383,6.40832 -1.36624,8.36009 0.0975,1.95042 1.106,2.89513 1.13853,4.42402 -0.0976,1.78913 -0.16266,1.69154 -0.16266,1.69154"
           id="path62"
           sodipodi:nodetypes="cscc" /><path
           style="opacity:1;fill:#008000;fill-opacity:1;stroke:none;stroke-width:0.4;stroke-dasharray:none"
           d="m 239.48247,216.09373 c -1.36623,4.58667 -0.21726,6.42655 0.94337,6.11556 2.60675,-0.69848 -0.3027,-3.60801 -0.94337,-6.11556 z"
           id="path63"
           sodipodi:nodetypes="csc" /><path
           style="opacity:1;fill:#008000;fill-opacity:1;stroke:none;stroke-width:0.4;stroke-dasharray:none"
           d="m 245.14261,220.84304 c -1.0084,1.65902 -3.98287,3.48594 -1.93549,4.668 1.70366,0.9836 2.44605,-1.6725 1.93549,-4.668 z"
           id="path64"
           sodipodi:nodetypes="csc" /><ellipse
           style="opacity:1;fill:#ffcc00;fill-opacity:1;stroke:none;stroke-width:0.520972;stroke-dasharray:none"
           id="ellipse64"
           ry="2.0561657"
           rx="1.1305133"
           cy="155.50183"
           cx="293.42017"
           transform="matrix(0.97841563,0.20664669,-0.28504665,0.95851365,0,0)" /></g><g
         id="g68"
         inkscape:label="flor azul"
         transform="rotate(-62.675609,-31.877212,126.06292)"><g
           id="g66"><path
             style="opacity:1;fill:#3bdf3b;fill-opacity:1;stroke:none;stroke-width:0.264999;stroke-dasharray:none"
             d="m 29.9265,225.26475 c 0.786725,-3.25509 4.408169,-2.53655 6.496778,-3.5841 2.935168,7.10551 -1.337467,7.5486 -2.657616,9.7345 l -3.968603,1.69154 z"
             id="path65"
             sodipodi:nodetypes="ccccc" /><path
             style="opacity:1;fill:#029c02;fill-opacity:1;stroke:none;stroke-width:0.264999;stroke-dasharray:none"
             d="m 30.187414,232.29345 c 1.929339,-2.95046 4.157374,-5.27783 5.855316,-9.69381 0.370789,2.48521 -4.919791,10.07633 -5.237255,9.88898 -0.11206,-0.0661 -0.618061,-0.19517 -0.618061,-0.19517 z"
             id="path66"
             sodipodi:nodetypes="ccsc" /></g><path
           style="opacity:1;fill:#3131ff;fill-opacity:1;stroke:none;stroke-width:0.264583"
           d="m 25.177863,237.40058 c -3.246783,0.73439 -6.045867,2.89718 -10.441982,0.52048 0.382634,-2.44376 2.413193,-4.02433 4.586666,-5.53003 -1.7756,-1.0898 -2.420668,-0.82936 -2.895128,0.68312 -3.50178,-3.2222 1.170141,-5.75514 3.51319,-5.82278 1.764541,-0.0261 3.061257,0.3241 4.391487,1.17106 -0.342661,-1.89322 0.672548,-3.56013 2.407186,-5.10714 6.534108,1.20418 6.808406,5.05785 3.903545,9.07574 1.205815,-1.76948 2.502776,-2.2682 4.197268,-2.89744 3.356831,-0.2514 5.972959,0.69678 7.968783,1.46614 -2.253359,1.89991 -2.390001,4.90052 -8.587803,4.74932 4.673163,5.20033 1.726333,7.57726 0.910829,8.84803 -1.520014,-0.95223 -3.463078,-1.28623 -3.968605,-3.25295 -1.382167,2.63491 -3.87191,4.94516 -6.720817,5.0286 -0.613617,-2.99272 -0.303661,-5.93943 0.735381,-8.93215 z"
           id="path67"
           sodipodi:nodetypes="ccccccccccccccc" /><circle
           style="opacity:1;fill:#3131ff;fill-opacity:1;stroke:#d40000;stroke-width:0.264999;stroke-dasharray:none"
           id="circle67"
           cx="28.040464"
           cy="234.79822"
           r="2.0168314" /><path
           style="opacity:1;fill:#9f9fff;fill-opacity:1;stroke:none;stroke-width:0.264999;stroke-dasharray:none"
           d="m 25.854089,233.42286 c 0.09653,-1.11671 0.443237,-3.1322 -0.046,-4.60037 l 1.058085,2.71422 c 0.891667,-0.47161 1.286339,-1.77154 1.840149,-2.80623 -0.827119,3.22239 0.772583,3.71719 1.472116,1.56413 0.360181,-1.10858 -0.694434,2.5762 -0.230018,2.5762 0.897569,0.19417 1.708814,-0.0433 2.484199,-0.46003 0,0 -1.211686,1.44944 -1.012081,1.70214 0.322027,0.40769 2.162175,-0.0423 2.162175,-0.23002 -0.408725,0.57268 -1.035756,0.92706 -0.87407,2.07016 0.263767,1.13271 1.154992,1.84711 1.748142,2.76023 -1.473269,-0.95519 -2.590017,-1.48256 -3.45028,-1.70214 0.08561,0.80633 0.470026,1.91148 0.920074,3.08225 l -2.438195,-3.22027 c -0.519087,0.55663 -0.689284,3.23715 -0.736061,4.73839 l -0.414033,-2.25418 c -0.325281,-0.079 -0.964372,1.09726 -1.518122,1.93215 0.433017,-1.43244 0.578259,-2.76895 0.276022,-3.95631 l -1.334109,2.25417 c 0.141155,-1.18076 0.598218,-2.36152 0.184015,-3.54228 -1.043788,-0.61286 -3.274764,-0.63213 -5.244424,-0.78206 1.705586,-0.1062 3.427568,-0.20692 4.416358,-0.55205 -0.367189,-0.97602 -2.259875,-2.46054 -3.634294,-3.7723 1.702139,1.1961 3.358273,2.34619 4.370356,2.4842 z"
           id="path68"
           sodipodi:nodetypes="ccccsccscccccccccccccccc" /><circle
           style="opacity:1;fill:#1111a0;fill-opacity:1;stroke:none;stroke-width:0.264999;stroke-dasharray:none"
           id="circle68"
           cx="28.361292"
           cy="234.77997"
           r="1.4031134" /></g><g
         id="g72"
         transform="rotate(-24.263139,59.198536,284.40024)"><path
           style="opacity:1;fill:#eb0000;fill-opacity:1;stroke:none;stroke-width:0.4;stroke-dasharray:none"
           d="m 242.8362,213.09547 c 0.60356,0.79188 1.82038,0.6076 2.51047,0.18796 0.81152,-1.056 0.96216,-1.84072 -0.10925,-3.58142 1.00049,-0.25603 2.81745,-0.92956 2.68767,-2.28344 -0.18457,-0.88886 -1.72089,-0.93543 -2.75734,-0.53339 1.22465,-0.69491 0.75353,-2.17445 -0.37186,-2.4692 -1.48732,-0.19728 -1.85166,1.12343 -1.98956,2.26478 -0.43341,-0.99368 -1.47032,-1.90254 -2.63377,-1.2248 -1.50474,1.13207 -0.83899,3.23888 -0.47487,4.01372 -0.72268,-0.0629 -1.41217,-0.0742 -1.36974,1.05307 0.11342,0.90403 0.73184,0.86313 1.30277,0.85214 -1.45802,1.77605 -0.42639,2.76918 0.4213,3.17849 0.8602,0.42272 2.10968,0.0332 2.78418,-1.45791 z"
           id="path69"
           sodipodi:nodetypes="ccccccccccccc" /><path
           style="opacity:1;fill:none;fill-opacity:0.411972;stroke:#008000;stroke-width:0.4;stroke-dasharray:none"
           d="m 242.86555,212.84078 c 0.52047,2.47225 -1.46383,6.40832 -1.36624,8.36009 0.0975,1.95042 1.106,2.89513 1.13853,4.42402 -0.0976,1.78913 -0.16266,1.69154 -0.16266,1.69154"
           id="path70"
           sodipodi:nodetypes="cscc" /><path
           style="opacity:1;fill:#008000;fill-opacity:1;stroke:none;stroke-width:0.4;stroke-dasharray:none"
           d="m 239.48247,216.09373 c -1.36623,4.58667 -0.21726,6.42655 0.94337,6.11556 2.60675,-0.69848 -0.3027,-3.60801 -0.94337,-6.11556 z"
           id="path71"
           sodipodi:nodetypes="csc" /><path
           style="opacity:1;fill:#008000;fill-opacity:1;stroke:none;stroke-width:0.4;stroke-dasharray:none"
           d="m 245.14261,220.84304 c -1.0084,1.65902 -3.98287,3.48594 -1.93549,4.668 1.70366,0.9836 2.44605,-1.6725 1.93549,-4.668 z"
           id="path72"
           sodipodi:nodetypes="csc" /><ellipse
           style="opacity:1;fill:#ffcc00;fill-opacity:1;stroke:none;stroke-width:0.520972;stroke-dasharray:none"
           id="ellipse72"
           ry="2.0561657"
           rx="1.1305133"
           cy="155.50183"
           cx="293.42017"
           transform="matrix(0.97841563,0.20664669,-0.28504665,0.95851365,0,0)" /></g><g
         id="g74"
         transform="matrix(-0.10474122,-0.40632039,0.41775465,-0.10768874,6.5181708,560.15884)"
         inkscape:label="g74"><path
           style="opacity:1;fill:#ffffff;fill-opacity:1;stroke:none;stroke-width:0.4;stroke-dasharray:none"
           d="m 179.78252,227.7184 c 1.81676,4.94398 5.85013,13.85608 -3.22025,17.66543 7.70159,-0.62084 11.42318,3.85527 12.513,10.58085 -4.15843,7.14355 -14.53312,7.01057 -18.95353,-0.64405 7.57876,12.80856 -6.07248,18.6775 -6.07248,18.6775 -3.61671,-2.60912 -8.74118,-6.10268 -6.34852,-15.36523 -6.70497,3.01953 -12.30931,2.40695 -16.56134,-2.66822 2.30892,-10.64297 6.75303,-11.12055 12.69703,-11.31691 -5.61183,-3.05702 -6.21433,-8.71146 -5.24442,-15.18123 5.86999,-1.09193 15.66532,-2.1022 16.1933,9.8448 2.13618,-10.11679 9.01926,-11.08058 14.99721,-11.59294 z"
           id="path73"
           sodipodi:nodetypes="ccccccccccc" /><path
           style="opacity:1;fill:#ffdc46;fill-opacity:1;stroke:none;stroke-width:0.4;stroke-dasharray:none"
           d="m 165.33736,245.38383 3.6803,-6.1645 -1.1961,6.53252 7.08458,-8.18866 -5.52046,9.66079 5.61246,-3.31227 -4.9684,5.33643 7.17657,3.03625 -6.90055,-0.46004 4.8764,3.95631 -6.80856,-3.31226 -1.93216,8.18866 -1.47212,-7.82063 c 0,0 -1.2881,9.75278 -1.65614,9.84479 -0.36803,0.092 -1.38011,-9.84479 -1.38011,-9.84479 l -5.24441,2.66821 4.78438,-5.0604 -6.80855,2.4842 c 0,0 6.07249,-4.23235 5.70446,-3.95632 -0.36803,0.27602 -7.63662,0 -7.63662,0 l 9.20074,-1.65614 -6.44052,-7.5446 7.54462,5.61244 -3.86432,-9.01672 z"
           id="path74"
           sodipodi:nodetypes="cccccccccccccsccccscccccc" /><circle
           style="opacity:1;fill:#ffcc00;fill-opacity:1;stroke:none;stroke-width:0.4;stroke-dasharray:none"
           id="circle74"
           cx="165.38335"
           cy="248.65009"
           r="1.7021375" /></g><g
         id="g78"
         transform="rotate(-29.525973,-25.313322,342.19201)"><path
           style="opacity:1;fill:#eb0000;fill-opacity:1;stroke:none;stroke-width:0.4;stroke-dasharray:none"
           d="m 242.8362,213.09547 c 0.60356,0.79188 1.82038,0.6076 2.51047,0.18796 0.81152,-1.056 0.96216,-1.84072 -0.10925,-3.58142 1.00049,-0.25603 2.81745,-0.92956 2.68767,-2.28344 -0.18457,-0.88886 -1.72089,-0.93543 -2.75734,-0.53339 1.22465,-0.69491 0.75353,-2.17445 -0.37186,-2.4692 -1.48732,-0.19728 -1.85166,1.12343 -1.98956,2.26478 -0.43341,-0.99368 -1.47032,-1.90254 -2.63377,-1.2248 -1.50474,1.13207 -0.83899,3.23888 -0.47487,4.01372 -0.72268,-0.0629 -1.41217,-0.0742 -1.36974,1.05307 0.11342,0.90403 0.73184,0.86313 1.30277,0.85214 -1.45802,1.77605 -0.42639,2.76918 0.4213,3.17849 0.8602,0.42272 2.10968,0.0332 2.78418,-1.45791 z"
           id="path75"
           sodipodi:nodetypes="ccccccccccccc" /><path
           style="opacity:1;fill:none;fill-opacity:0.411972;stroke:#008000;stroke-width:0.4;stroke-dasharray:none"
           d="m 242.86555,212.84078 c 0.52047,2.47225 -1.46383,6.40832 -1.36624,8.36009 0.0975,1.95042 1.106,2.89513 1.13853,4.42402 -0.0976,1.78913 -0.16266,1.69154 -0.16266,1.69154"
           id="path76"
           sodipodi:nodetypes="cscc" /><path
           style="opacity:1;fill:#008000;fill-opacity:1;stroke:none;stroke-width:0.4;stroke-dasharray:none"
           d="m 239.48247,216.09373 c -1.36623,4.58667 -0.21726,6.42655 0.94337,6.11556 2.60675,-0.69848 -0.3027,-3.60801 -0.94337,-6.11556 z"
           id="path77"
           sodipodi:nodetypes="csc" /><path
           style="opacity:1;fill:#008000;fill-opacity:1;stroke:none;stroke-width:0.4;stroke-dasharray:none"
           d="m 245.14261,220.84304 c -1.0084,1.65902 -3.98287,3.48594 -1.93549,4.668 1.70366,0.9836 2.44605,-1.6725 1.93549,-4.668 z"
           id="path78"
           sodipodi:nodetypes="csc" /><ellipse
           style="opacity:1;fill:#ffcc00;fill-opacity:1;stroke:none;stroke-width:0.520972;stroke-dasharray:none"
           id="ellipse78"
           ry="2.0561657"
           rx="1.1305133"
           cy="155.50183"
           cx="293.42017"
           transform="matrix(0.97841563,0.20664669,-0.28504665,0.95851365,0,0)" /></g><g
         id="g82"
         transform="rotate(9.0943546,295.87477,-188.21621)"><path
           style="opacity:1;fill:#eb0000;fill-opacity:1;stroke:none;stroke-width:0.4;stroke-dasharray:none"
           d="m 242.8362,213.09547 c 0.60356,0.79188 1.82038,0.6076 2.51047,0.18796 0.81152,-1.056 0.96216,-1.84072 -0.10925,-3.58142 1.00049,-0.25603 2.81745,-0.92956 2.68767,-2.28344 -0.18457,-0.88886 -1.72089,-0.93543 -2.75734,-0.53339 1.22465,-0.69491 0.75353,-2.17445 -0.37186,-2.4692 -1.48732,-0.19728 -1.85166,1.12343 -1.98956,2.26478 -0.43341,-0.99368 -1.47032,-1.90254 -2.63377,-1.2248 -1.50474,1.13207 -0.83899,3.23888 -0.47487,4.01372 -0.72268,-0.0629 -1.41217,-0.0742 -1.36974,1.05307 0.11342,0.90403 0.73184,0.86313 1.30277,0.85214 -1.45802,1.77605 -0.42639,2.76918 0.4213,3.17849 0.8602,0.42272 2.10968,0.0332 2.78418,-1.45791 z"
           id="path79"
           sodipodi:nodetypes="ccccccccccccc" /><path
           style="opacity:1;fill:none;fill-opacity:0.411972;stroke:#008000;stroke-width:0.4;stroke-dasharray:none"
           d="m 242.86555,212.84078 c 0.52047,2.47225 -1.46383,6.40832 -1.36624,8.36009 0.0975,1.95042 1.106,2.89513 1.13853,4.42402 -0.0976,1.78913 -0.16266,1.69154 -0.16266,1.69154"
           id="path80"
           sodipodi:nodetypes="cscc" /><path
           style="opacity:1;fill:#008000;fill-opacity:1;stroke:none;stroke-width:0.4;stroke-dasharray:none"
           d="m 239.48247,216.09373 c -1.36623,4.58667 -0.21726,6.42655 0.94337,6.11556 2.60675,-0.69848 -0.3027,-3.60801 -0.94337,-6.11556 z"
           id="path81"
           sodipodi:nodetypes="csc" /><path
           style="opacity:1;fill:#008000;fill-opacity:1;stroke:none;stroke-width:0.4;stroke-dasharray:none"
           d="m 245.14261,220.84304 c -1.0084,1.65902 -3.98287,3.48594 -1.93549,4.668 1.70366,0.9836 2.44605,-1.6725 1.93549,-4.668 z"
           id="path82"
           sodipodi:nodetypes="csc" /><ellipse
           style="opacity:1;fill:#ffcc00;fill-opacity:1;stroke:none;stroke-width:0.520972;stroke-dasharray:none"
           id="ellipse82"
           ry="2.0561657"
           rx="1.1305133"
           cy="155.50183"
           cx="293.42017"
           transform="matrix(0.97841563,0.20664669,-0.28504665,0.95851365,0,0)" /></g><g
         id="g86"
         transform="rotate(-29.525973,118.87051,480.04553)"><path
           style="opacity:1;fill:#eb0000;fill-opacity:1;stroke:none;stroke-width:0.4;stroke-dasharray:none"
           d="m 242.8362,213.09547 c 0.60356,0.79188 1.82038,0.6076 2.51047,0.18796 0.81152,-1.056 0.96216,-1.84072 -0.10925,-3.58142 1.00049,-0.25603 2.81745,-0.92956 2.68767,-2.28344 -0.18457,-0.88886 -1.72089,-0.93543 -2.75734,-0.53339 1.22465,-0.69491 0.75353,-2.17445 -0.37186,-2.4692 -1.48732,-0.19728 -1.85166,1.12343 -1.98956,2.26478 -0.43341,-0.99368 -1.47032,-1.90254 -2.63377,-1.2248 -1.50474,1.13207 -0.83899,3.23888 -0.47487,4.01372 -0.72268,-0.0629 -1.41217,-0.0742 -1.36974,1.05307 0.11342,0.90403 0.73184,0.86313 1.30277,0.85214 -1.45802,1.77605 -0.42639,2.76918 0.4213,3.17849 0.8602,0.42272 2.10968,0.0332 2.78418,-1.45791 z"
           id="path83"
           sodipodi:nodetypes="ccccccccccccc" /><path
           style="opacity:1;fill:none;fill-opacity:0.411972;stroke:#008000;stroke-width:0.4;stroke-dasharray:none"
           d="m 242.86555,212.84078 c 0.52047,2.47225 -1.46383,6.40832 -1.36624,8.36009 0.0975,1.95042 1.106,2.89513 1.13853,4.42402 -0.0976,1.78913 -0.16266,1.69154 -0.16266,1.69154"
           id="path84"
           sodipodi:nodetypes="cscc" /><path
           style="opacity:1;fill:#008000;fill-opacity:1;stroke:none;stroke-width:0.4;stroke-dasharray:none"
           d="m 239.48247,216.09373 c -1.36623,4.58667 -0.21726,6.42655 0.94337,6.11556 2.60675,-0.69848 -0.3027,-3.60801 -0.94337,-6.11556 z"
           id="path85"
           sodipodi:nodetypes="csc" /><path
           style="opacity:1;fill:#008000;fill-opacity:1;stroke:none;stroke-width:0.4;stroke-dasharray:none"
           d="m 245.14261,220.84304 c -1.0084,1.65902 -3.98287,3.48594 -1.93549,4.668 1.70366,0.9836 2.44605,-1.6725 1.93549,-4.668 z"
           id="path86"
           sodipodi:nodetypes="csc" /><ellipse
           style="opacity:1;fill:#ffcc00;fill-opacity:1;stroke:none;stroke-width:0.520972;stroke-dasharray:none"
           id="ellipse86"
           ry="2.0561657"
           rx="1.1305133"
           cy="155.50183"
           cx="293.42017"
           transform="matrix(0.97841563,0.20664669,-0.28504665,0.95851365,0,0)" /></g><g
         id="g90"
         transform="rotate(15.865618,208.84107,-264.64791)"><path
           style="opacity:1;fill:#eb0000;fill-opacity:1;stroke:none;stroke-width:0.4;stroke-dasharray:none"
           d="m 242.8362,213.09547 c 0.60356,0.79188 1.82038,0.6076 2.51047,0.18796 0.81152,-1.056 0.96216,-1.84072 -0.10925,-3.58142 1.00049,-0.25603 2.81745,-0.92956 2.68767,-2.28344 -0.18457,-0.88886 -1.72089,-0.93543 -2.75734,-0.53339 1.22465,-0.69491 0.75353,-2.17445 -0.37186,-2.4692 -1.48732,-0.19728 -1.85166,1.12343 -1.98956,2.26478 -0.43341,-0.99368 -1.47032,-1.90254 -2.63377,-1.2248 -1.50474,1.13207 -0.83899,3.23888 -0.47487,4.01372 -0.72268,-0.0629 -1.41217,-0.0742 -1.36974,1.05307 0.11342,0.90403 0.73184,0.86313 1.30277,0.85214 -1.45802,1.77605 -0.42639,2.76918 0.4213,3.17849 0.8602,0.42272 2.10968,0.0332 2.78418,-1.45791 z"
           id="path87"
           sodipodi:nodetypes="ccccccccccccc" /><path
           style="opacity:1;fill:none;fill-opacity:0.411972;stroke:#008000;stroke-width:0.4;stroke-dasharray:none"
           d="m 242.86555,212.84078 c 0.52047,2.47225 -1.46383,6.40832 -1.36624,8.36009 0.0975,1.95042 1.106,2.89513 1.13853,4.42402 -0.0976,1.78913 -0.16266,1.69154 -0.16266,1.69154"
           id="path88"
           sodipodi:nodetypes="cscc" /><path
           style="opacity:1;fill:#008000;fill-opacity:1;stroke:none;stroke-width:0.4;stroke-dasharray:none"
           d="m 239.48247,216.09373 c -1.36623,4.58667 -0.21726,6.42655 0.94337,6.11556 2.60675,-0.69848 -0.3027,-3.60801 -0.94337,-6.11556 z"
           id="path89"
           sodipodi:nodetypes="csc" /><path
           style="opacity:1;fill:#008000;fill-opacity:1;stroke:none;stroke-width:0.4;stroke-dasharray:none"
           d="m 245.14261,220.84304 c -1.0084,1.65902 -3.98287,3.48594 -1.93549,4.668 1.70366,0.9836 2.44605,-1.6725 1.93549,-4.668 z"
           id="path90"
           sodipodi:nodetypes="csc" /><ellipse
           style="opacity:1;fill:#ffcc00;fill-opacity:1;stroke:none;stroke-width:0.520972;stroke-dasharray:none"
           id="ellipse90"
           ry="2.0561657"
           rx="1.1305133"
           cy="155.50183"
           cx="293.42017"
           transform="matrix(0.97841563,0.20664669,-0.28504665,0.95851365,0,0)" /></g><g
         id="g8"
         transform="matrix(-0.10474122,-0.40632039,0.41775465,-0.10768874,6.5181708,260.15884)"><path
           style="opacity:1;fill:#ffffff;fill-opacity:1;stroke:none;stroke-width:0.4;stroke-dasharray:none"
           d="m 179.78252,227.7184 c 1.81676,4.94398 5.85013,13.85608 -3.22025,17.66543 7.70159,-0.62084 11.42318,3.85527 12.513,10.58085 -4.15843,7.14355 -14.53312,7.01057 -18.95353,-0.64405 7.57876,12.80856 -6.07248,18.6775 -6.07248,18.6775 -3.61671,-2.60912 -8.74118,-6.10268 -6.34852,-15.36523 -6.70497,3.01953 -12.30931,2.40695 -16.56134,-2.66822 2.30892,-10.64297 6.75303,-11.12055 12.69703,-11.31691 -5.61183,-3.05702 -6.21433,-8.71146 -5.24442,-15.18123 5.86999,-1.09193 15.66532,-2.1022 16.1933,9.8448 2.13618,-10.11679 9.01926,-11.08058 14.99721,-11.59294 z"
           id="path7"
           sodipodi:nodetypes="ccccccccccc" /><path
           style="opacity:1;fill:#ffdc46;fill-opacity:1;stroke:none;stroke-width:0.4;stroke-dasharray:none"
           d="m 165.33736,245.38383 3.6803,-6.1645 -1.1961,6.53252 7.08458,-8.18866 -5.52046,9.66079 5.61246,-3.31227 -4.9684,5.33643 7.17657,3.03625 -6.90055,-0.46004 4.8764,3.95631 -6.80856,-3.31226 -1.93216,8.18866 -1.47212,-7.82063 c 0,0 -1.2881,9.75278 -1.65614,9.84479 -0.36803,0.092 -1.38011,-9.84479 -1.38011,-9.84479 l -5.24441,2.66821 4.78438,-5.0604 -6.80855,2.4842 c 0,0 6.07249,-4.23235 5.70446,-3.95632 -0.36803,0.27602 -7.63662,0 -7.63662,0 l 9.20074,-1.65614 -6.44052,-7.5446 7.54462,5.61244 -3.86432,-9.01672 z"
           id="path8"
           sodipodi:nodetypes="cccccccccccccsccccscccccc" /><circle
           style="opacity:1;fill:#ffcc00;fill-opacity:1;stroke:none;stroke-width:0.4;stroke-dasharray:none"
           id="circle8"
           cx="165.38335"
           cy="248.65009"
           r="1.7021375" /></g></g></g></svg>
